<?xml version="1.0" encoding="UTF-8" standalone="no"?>
<svg
   xmlns:dc="http://purl.org/dc/elements/1.1/"
   xmlns:cc="http://creativecommons.org/ns#"
   xmlns:rdf="http://www.w3.org/1999/02/22-rdf-syntax-ns#"
   xmlns:svg="http://www.w3.org/2000/svg"
   xmlns="http://www.w3.org/2000/svg"
   xmlns:sodipodi="http://sodipodi.sourceforge.net/DTD/sodipodi-0.dtd"
   xmlns:inkscape="http://www.inkscape.org/namespaces/inkscape"
   version="1.1"
   id="svg28"
   xml:space="preserve"
   width="793.70135"
   height="1122.52"
   viewBox="0 0 793.70135 1122.52"
   sodipodi:docname="logo_bud.svg"
   inkscape:version="1.0.2 (e86c870879, 2021-01-15)"><metadata
     id="metadata34"><rdf:RDF><cc:Work
         rdf:about=""><dc:format>image/svg+xml</dc:format><dc:type
           rdf:resource="http://purl.org/dc/dcmitype/StillImage" /><dc:title></dc:title></cc:Work></rdf:RDF></metadata><defs
     id="defs32"><clipPath
       clipPathUnits="userSpaceOnUse"
       id="clipPath44"><path
         d="M 0,841.89 H 595.276 V 0 H 0 Z"
         id="path42" /></clipPath></defs><sodipodi:namedview
     pagecolor="#ffffff"
     bordercolor="#666666"
     borderopacity="1"
     objecttolerance="10"
     gridtolerance="10"
     guidetolerance="10"
     inkscape:pageopacity="0"
     inkscape:pageshadow="2"
     inkscape:window-width="1364"
     inkscape:window-height="710"
     id="namedview30"
     showgrid="false"
     inkscape:zoom="0.47393364"
     inkscape:cx="396.85068"
     inkscape:cy="561.26001"
     inkscape:window-x="2233"
     inkscape:window-y="206"
     inkscape:window-maximized="0"
     inkscape:current-layer="g40" /><g
     id="g36"
     inkscape:groupmode="layer"
     inkscape:label="logo (1)"
     transform="matrix(1.3333333,0,0,-1.3333333,0,1122.52)"><g
       id="g38"><g
         id="g40"
         clip-path="url(#clipPath44)"><g
           id="g46"
           transform="translate(410.1348,515.0915)"
           inkscape:export-xdpi="192.92639"
           inkscape:export-ydpi="192.92639"><path
             d="m 0,0 c -4.668,7.118 -15.862,8.496 -23.512,4.431 -7.692,-4.087 -12.53,-12.019 -8.787,-19.492 6.122,-12.223 9.559,-25.936 9.559,-40.424 -0.002,-51.329 -43.092,-92.94 -96.25,-92.94 -53.157,0 -96.246,41.611 -96.248,92.94 0.002,51.328 43.091,92.94 96.248,92.94 32.036,0 56.236,-15.364 68.389,-27.518 0.803,-0.8 1.91,-1.296 3.133,-1.296 2.445,0 4.428,1.982 4.428,4.429 0,0.995 -0.33,1.913 -0.884,2.654 -13.504,18 -43.798,35.759 -75.066,35.759 -63.562,0 -133.261,-42.727 -133.261,-115.495 0,-46.472 39.7,-98.442 133.261,-98.442 63.563,0 133.262,42.729 133.262,115.497 C 14.272,-31.19 9.694,-14.79 0,0"
             style="fill:#701449;fill-opacity:1;fill-rule:nonzero;stroke:none"
             id="path48" /></g><g
           id="g50"
           transform="translate(140.231,287.175)"
           inkscape:export-xdpi="192.92639"
           inkscape:export-ydpi="192.92639"><path
             d="m 0,0 c 0,4.834 -3.326,7.849 -7.537,8.577 v 0.104 c 3.586,1.195 6.029,3.898 6.029,7.953 0,7.433 -6.809,9.461 -12.527,9.461 h -14.659 v -36.804 h 14.659 C -7.018,-10.709 0,-8.006 0,0 m -10.083,15.438 c 0,-2.598 -1.924,-4.002 -5.252,-4.002 h -4.782 v 7.589 h 4.367 c 3.743,0 5.667,-1.092 5.667,-3.587 M -8.889,0.832 c 0,-3.586 -3.429,-4.368 -6.236,-4.368 h -4.992 v 8.423 h 4.939 c 3.794,0 6.289,-0.99 6.289,-4.055 M 37.062,3.171 V 26.095 H 28.173 V 3.897 c 0,-3.95 -1.87,-7.587 -6.912,-7.587 -4.991,0 -6.915,3.637 -6.915,7.587 V 26.095 H 5.51 V 3.171 c 0,-8.838 6.03,-14.867 15.698,-14.867 9.615,0 15.854,6.029 15.854,14.867 m 41.532,4.627 c 0,13.931 -10.605,18.297 -21.053,18.297 H 44.235 v -36.804 h 13.723 c 10.135,0 20.636,5.563 20.636,18.507 m -9.253,0 c 0,-8.213 -5.872,-10.813 -12.215,-10.813 h -4.209 v 21.519 h 4.416 c 6.136,0 12.008,-2.442 12.008,-10.706 m 53.488,0.051 c 0,11.799 -8.524,19.233 -20.065,19.233 -11.487,0 -20.011,-7.434 -20.011,-19.233 0,-11.643 8.524,-19.545 20.011,-19.545 11.541,0 20.065,7.902 20.065,19.545 m -9.512,0 c 0,-6.655 -4.368,-11.436 -10.553,-11.436 -6.184,0 -10.499,4.781 -10.499,11.436 0,6.446 4.262,11.227 10.499,11.227 6.238,0 10.553,-4.781 10.553,-11.227 m 46.574,-4.678 v 22.924 h -8.889 V 3.897 c 0,-3.95 -1.87,-7.587 -6.912,-7.587 -4.991,0 -6.915,3.637 -6.915,7.587 v 22.198 h -8.836 V 3.171 c 0,-8.838 6.03,-14.867 15.698,-14.867 9.615,0 15.854,6.029 15.854,14.867 m 39.558,-8.785 -6.186,5.821 c -1.559,-2.182 -4.315,-3.743 -7.798,-3.743 -6.132,0 -10.448,4.576 -10.448,11.281 0,6.497 4.419,11.28 10.605,11.28 2.807,0 5.768,-1.092 7.431,-3.379 l 6.031,6.03 c -3.067,3.535 -8.627,5.406 -13.776,5.406 -11.227,0 -19.96,-7.537 -19.96,-19.337 0,-11.539 8.474,-19.441 19.806,-19.441 6.185,0 11.071,2.339 14.295,6.082 m 37.269,-5.095 v 36.804 h -8.628 l 0.207,-24.017 h -0.156 l -14.762,24.017 h -10.136 v -36.804 h 8.629 l -0.208,24.067 h 0.155 l 14.816,-24.067 z m 45.951,18.558 c 0,11.799 -8.526,19.233 -20.065,19.233 -11.488,0 -20.013,-7.434 -20.013,-19.233 0,-11.643 8.525,-19.545 20.013,-19.545 11.539,0 20.065,7.902 20.065,19.545 m -9.513,0 c 0,-6.655 -4.366,-11.436 -10.552,-11.436 -6.187,0 -10.499,4.781 -10.499,11.436 0,6.446 4.262,11.227 10.499,11.227 6.238,0 10.552,-4.781 10.552,-11.227 m 40.494,14.659 c -3.225,2.962 -7.902,4.521 -12.061,4.521 -6.861,0 -14.242,-3.377 -14.242,-11.539 0,-6.654 4.731,-9.044 9.408,-10.553 4.834,-1.558 7.641,-2.442 7.641,-5.249 0,-2.963 -2.392,-4.003 -5.095,-4.003 -2.91,0 -6.183,1.665 -7.952,3.9 l -5.821,-5.928 c 3.222,-3.377 8.524,-5.301 13.773,-5.301 7.28,0 14.088,3.795 14.088,12.267 0,7.329 -6.446,9.461 -11.435,11.072 -3.483,1.092 -5.667,1.871 -5.667,4.314 0,2.913 2.86,3.692 5.146,3.692 2.287,0 5.043,-1.248 6.55,-3.171 z m 30.719,-4.004 v 7.591 h -29.681 v -7.591 h 10.396 v -29.213 h 8.89 v 29.213 z"
             style="fill:#701449;fill-opacity:1;fill-rule:nonzero;stroke:none"
             id="path52" /></g></g></g></g></svg>
