<?xml version="1.0" encoding="utf-8"?>
<!-- Generator: Adobe Illustrator 23.0.1, SVG Export Plug-In . SVG Version: 6.00 Build 0)  -->
<svg version="1.1" id="Vrstva_1" xmlns="http://www.w3.org/2000/svg" xmlns:xlink="http://www.w3.org/1999/xlink" x="0px" y="0px"
	 viewBox="0 0 836.2 836.2" style="enable-background:new 0 0 836.2 836.2;" xml:space="preserve">
<style type="text/css">
	.st0{fill:#353535;}
</style>
<path class="st0" d="M417.6,448.5c-6.4-6.4-12.7-12.9-19.2-19.3c-1.4-1.4-2-2.6-1.8-4.7c2.3-23.1,4.4-46.2,6.6-69.3
	c0.4-4.5,0.2-9-0.8-13.4c-2.7-12.2-15.2-17-25.4-9.7c-10.1,7.2-15.1,17.6-18.1,29.2c-1.7,6.3-2.5,12.8-3.2,19.3
	c-1.1,0.3-1.4-0.7-1.9-1.2c-7.6-7.5-15.1-15.1-22.8-22.6c-1.3-1.3-1.6-2.4-1.1-4.3c4.7-17.8,13.3-33.2,28.3-44.1
	c15.3-11.1,32.1-14.8,50-6.7c14.6,6.6,21.1,19.3,24,34.4c2.4,12.6,1.1,25.2-0.3,37.7c-0.6,5.8-1.2,11.7-1.4,18.1
	c18.5-18.4,36.9-36.8,56.1-55.8c-6.1,0-11.3,0-16.6,0c-7.2,0-7.2,0-7.2-7.1c0-6.9,0.1-13.9,0-20.8c0-2,0.6-2.6,2.6-2.6
	c16.5,0.1,33,0.1,49.5,0c1.6,0,2.6,0.6,3.7,1.7c6,6,11.9,12,18,17.9c1.8,1.7,1.5,2.6-0.1,4.2c-38.8,38.8-77.5,77.6-116.2,116.4
	c-0.8,0.8-2,1.5-2.3,2.7C418,448.5,417.8,448.5,417.6,448.5z"/>
<path class="st0" d="M336.5,542.2c0-10.4,0-19.9,0-29.5c0-2.6-0.8-6,0.5-7.5c1.5-1.8,5-0.5,7.6-0.6c5.1-0.1,5.1,0,5.1,5.2
	c0,17.1-0.1,34.1,0.1,51.2c0,2.5-0.7,3.3-3.1,2.9c-1-0.1-2.1-0.2-3,0c-5.4,1-8.6-1.4-11.7-5.8c-7.5-10.6-15.6-20.8-23.4-31.3
	c-1,0.8-0.5,1.7-0.5,2.6c0,10.5-0.1,21,0,31.6c0,2.2-0.4,3.1-2.8,2.9c-2.8-0.2-5.7-0.1-8.6,0c-1.5,0.1-1.9-0.5-1.8-1.9
	c0-18.5,0-37.1,0-55.6c0-1.5,0.4-1.9,1.9-1.9c3,0.1,5.9,0.1,8.9,0c1.8-0.1,2.8,0.5,3.9,1.9c8.4,11.2,16.9,22.4,25.3,33.6
	C335.2,540.6,335.6,541.1,336.5,542.2z"/>
<path class="st0" d="M236,534.3c0-9.1,0-18.3,0-27.4c0-1.8,0.5-2.3,2.3-2.3c14.2,0.1,28.4,0.1,42.6,0c1.8,0,2.4,0.5,2.3,2.3
	c-0.1,2.8-0.2,5.5,0,8.3c0.2,2.2-0.8,2.5-2.7,2.5c-9.5-0.1-19,0.1-28.5-0.1c-2.5,0-3.1,0.7-3,3.1c0.1,7,0,7.1,7.1,7.1
	c7.2,0,14.4,0.1,21.6,0c1.9,0,2.6,0.5,2.5,2.5c-0.2,2.8-0.2,5.5,0,8.3c0.1,2-0.7,2.4-2.5,2.4c-8.6-0.1-17.2,0-25.7-0.1
	c-2.1,0-2.9,0.4-2.8,2.7c0.1,7.2,0,7.2,7.1,7.2c8.2,0,16.4,0,24.6-0.1c1.9,0,2.6,0.4,2.5,2.4c-0.2,3-0.1,6.1,0,9.1
	c0,1.3-0.3,1.8-1.7,1.8c-14.6,0-29.2-0.1-43.7,0c-1.9,0-1.8-1-1.8-2.3C236,552.6,236,543.4,236,534.3z"/>
<path class="st0" d="M224.1,524c-5.8-3.5-11.4-6.4-17.7-7.4c-4.1-0.7-8.1-0.6-12,0.9c-2.2,0.9-4.2,2.2-4.2,4.9
	c0.1,2.8,2.1,3.9,4.5,4.5c4.8,1.2,9.7,2.2,14.5,3.4c4,1,7.7,2.6,10.8,5.3c7.3,6.2,7.9,16.2,1.4,23.3c-4.3,4.7-9.8,6.8-16,7.3
	c-8.7,0.7-17.1-1-25.1-4.3c-1.3-0.5-2-1.2-2-2.8c0.1-4.1,0-8.1,0-12.2c1.2-0.4,1.9,0.5,2.8,1c7.3,3.6,14.9,5.8,23.2,5.1
	c1.4-0.1,2.7-0.5,4-0.9c1.9-0.6,2.9-1.9,3-3.9c0.1-2-1.1-3.3-2.8-4c-3.7-1.5-7.6-2.1-11.5-2.9c-3.1-0.6-6.1-1.4-9-2.6
	c-6.9-2.8-11.1-7.6-11.3-15.2c-0.2-7.7,3.4-13.5,10.2-17c9.3-4.8,18.9-4,28.5-1c8.4,2.7,8.4,2.7,8.4,11.4
	C224.1,519.1,224.1,521.3,224.1,524z"/>
<path class="st0" d="M617.1,524.9c0-5.4,0-10.2,0-15.1c0-0.8,0.3-1.4,1-1.8c8.8-4.9,18.1-7.1,27.8-3.1c13.3,5.4,16.4,19.5,7.2,31.1
	c-4.2,5.3-9.7,9-14.8,13.3c-0.3,0.3-0.7,0.6-1.6,1.4c2.7,0,4.8,0,7,0c4.7,0,9.4,0.1,14.1-0.1c1.8,0,2.5,0.4,2.4,2.3
	c-0.1,2.9-0.2,5.7,0,8.6c0.1,1.9-0.5,2.5-2.4,2.5c-12.1-0.1-24.2,0-36.3,0c-1.6,0-3.1-0.1-4.7,0c-1.2,0.1-1.6-0.4-1.6-1.6
	c0.1-3.4,0.1-6.8,0-10.2c0-1.5,1.1-2.1,2-2.8c7.1-5.8,14.1-11.6,21.2-17.4c1.5-1.2,2.8-2.7,4.1-4.1c2-2.2,2.5-4.7,1.4-7.4
	c-1.1-2.8-3.6-3.8-6.4-4.1c-5.9-0.6-11,1.8-15.7,5.1C620.4,522.4,619,523.5,617.1,524.9z"/>
<path class="st0" d="M440.1,504.6c7.6,0,15.1,0,22.7,0c1.7,0,2.3,0.4,2.2,2.1c-0.1,2.9-0.2,5.7,0,8.6c0.1,2.1-0.7,2.4-2.5,2.4
	c-4.3-0.1-8.7,0.1-13-0.1c-2.3-0.1-3,0.5-2.9,2.8c0.1,13.6,0,27.1,0.1,40.7c0,2.3-0.6,3-2.9,2.9c-2.7-0.2-5.4-0.2-8,0
	c-1.9,0.1-2.5-0.5-2.5-2.4c0.1-13.4,0.1-26.8,0-40.1c0-4.3,0.7-3.7-3.8-3.8c-4.2,0-8.5-0.1-12.7,0c-1.6,0-2.1-0.5-2.1-2.1
	c0.1-2.9,0.1-5.9,0-8.9c-0.1-1.7,0.5-2.2,2.2-2.2C424.6,504.7,432.4,504.6,440.1,504.6z"/>
<path class="st0" d="M680.6,523.6c-1.8,1.8-3.5,3.5-5.2,5.3c-1,1.1-1.6,1.4-2.8,0.1c-2.1-2.3-4.4-4.5-6.6-6.7
	c-1-0.9-1.2-1.5-0.1-2.6c4.8-4.6,9.4-9.4,14.1-14c0.4-0.4,0.8-1,1.3-1c4.1-0.1,8.1-0.2,12.2,0c1.5,0.1,0.8,1.6,0.9,2.5
	c0,16.3,0,32.7,0,49c0,2-0.1,4.1,0,6.1c0.1,1.4-0.5,1.7-1.8,1.7c-3-0.1-6.1-0.2-9.1,0c-2.1,0.1-2.4-0.7-2.4-2.5
	c0.1-11.7,0-23.4,0-35.2C681.1,525.5,681.3,524.7,680.6,523.6z"/>
<path class="st0" d="M385,498.5c2.3-5.4,4.6-10.5,6.8-15.6c0.4-0.8,1-0.9,1.8-0.9c4.2,0,8.5,0,13.1,0c-2.4,5.3-4.7,10.4-6.9,15.5
	c-0.4,0.8-1,1-1.8,1C393.9,498.5,389.7,498.5,385,498.5z"/>
<path class="st0" d="M496.8,503c-17.5,0-31.5,13.8-31.5,31.3c0,17.4,13.8,31.3,31.2,31.4c17.5,0.1,31.6-13.7,31.6-31.2
	C528.2,517,514.3,503,496.8,503z M496.7,552.7c-9.9,0-18.4-8.4-18.4-18.4c0-10,8.3-18.2,18.4-18.2c10.1,0,18.3,8.1,18.3,18.2
	C515,544.4,506.7,552.7,496.7,552.7z"/>
<path class="st0" d="M575.3,545.4c-0.9-1.8-1.2-2.9,0.9-4.4c6.8-5.2,9.5-13.8,6.9-21.8c-2.7-8.5-8.6-13.8-17.6-14.6
	c-9.5-0.9-19.2-0.2-28.7-0.4c-1.7,0-1.6,1-1.6,2.2c0,18.5,0,37.1,0,55.6c0,1.6,0.6,2,2.1,2c3-0.1,6.1-0.1,9.1,0c1.6,0.1,2-0.5,2-2.1
	c-0.1-4.7,0-9.4-0.1-14.1c0-1.7,0.5-2.2,2.2-2.2c2.8,0.1,5.5,0.1,8.3,0c1.5-0.1,2.3,0.5,2.9,1.8c2.2,5,4.6,9.9,6.9,14.8
	c0.4,0.8,0.6,1.7,1.8,1.7c4.4-0.1,8.8,0,13.2,0c0-0.4,0.1-0.6,0-0.7C580.8,557.3,578.1,551.3,575.3,545.4z M548.8,531.8
	c-0.1-2.7-0.3-11.3-0.3-14.1c0,0,5-0.1,6-0.1c2.9,0,5.7-0.1,8.6,0.1c4.8,0.2,6.9,2.8,6.9,7.5c0,4.2-2.3,6.7-7,6.8"/>
<path class="st0" d="M420.8,560.9c-6.9-15.6-13.9-31.1-20.8-46.6c-1.4-3.2-2.2-7.4-4.6-9.2c-2.6-1.9-6.9-0.3-10.5-0.6
	c-2-0.2-2.9,0.7-3.7,2.4c-8,18.2-16.2,36.3-24.3,54.5c-0.3,0.8-1.1,1.5-0.7,2.6c4.1,0,8.1,0,12.2,0c1.3,0,2-0.4,2.5-1.6
	c1-2.5,2.2-4.9,3.3-7.3c0.5-1.1,1-1.7,2.4-1.7c8.2,0.1,16.4,0.1,24.6,0c1.3,0,2,0.5,2.5,1.6c1,2.5,2.2,4.9,3.3,7.3
	c0.4,0.8,0.6,1.7,1.9,1.7c4.3-0.1,8.6,0,13.2,0C421.6,562.7,421.2,561.8,420.8,560.9z M380.9,540c2.6-5.8,5.1-11.5,7.9-17.8
	c2.8,6.2,5.3,11.9,8,17.8C391.5,540,386.4,540,380.9,540z"/>
</svg>
