<?xml version="1.0" encoding="UTF-8" standalone="no"?>
<svg
   xmlns="http://www.w3.org/2000/svg"
   height="600"
   width="342"
   xml:space="preserve"
   id="svg2"
   version="1.1"><title
     id="title863">Artboard 2logo</title><g
     transform="matrix(2.9157029,0,0,-2.9157029,-239.34388,709.91132)"
     id="g10"><g
       transform="translate(89.207,131.2754)"
       id="g12"><path
         id="path14"
         style="fill:#78be43;fill-opacity:1;fill-rule:nonzero;stroke:none"
         d="M 0,0 59.141,74.886 H 0 v 29.762 H 103.111 V 74.886 L 43.972,0 h 59.139 V -29.763 H 0 Z" /></g><g
       id="g20"><g
         transform="translate(89.2304,47.9639)"
         id="g16"><path
           id="path18"
           style="fill:#231f20;fill-opacity:1;fill-rule:nonzero;stroke:none"
           d="M 0,0 14.693,19.98 H 0 v 3.616 H 19.941 V 19.98 L 5.248,0 H 19.941 V -3.615 H 0 Z" /></g><g
         transform="translate(115.5849,56.2051)"
         id="g28"><path
           id="path30"
           style="fill:#231f20;fill-opacity:1;fill-rule:nonzero;stroke:none"
           d="M 0,0 H 10.302 C 9.913,3.304 7.813,5.17 5.286,5.17 2.721,5.17 0.505,3.343 0,0 m -0.078,-3.032 c 0.349,-4.043 2.916,-5.909 5.364,-5.909 2.022,0 3.888,1.166 4.704,3.499 l 3.81,-0.856 c -1.4,-3.692 -4.743,-5.947 -8.591,-5.947 -4.82,0 -9.29,3.887 -9.29,10.34 0,6.53 4.47,10.379 9.29,10.379 4.51,0 9.445,-3.382 9.135,-11.506 z" /></g><path
         id="path32"
         style="fill:#231f20;fill-opacity:1;fill-rule:nonzero;stroke:none"
         d="m 134.397,73.114 h 4.004 V 44.348 h -4.004 z" /><g
         transform="translate(146.875,56.2051)"
         id="g34"><path
           id="path36"
           style="fill:#231f20;fill-opacity:1;fill-rule:nonzero;stroke:none"
           d="M 0,0 H 10.301 C 9.912,3.304 7.813,5.17 5.286,5.17 2.721,5.17 0.505,3.343 0,0 m -0.078,-3.032 c 0.349,-4.043 2.916,-5.909 5.364,-5.909 2.022,0 3.888,1.166 4.703,3.499 l 3.81,-0.856 C 12.4,-9.99 9.057,-12.245 5.208,-12.245 c -4.819,0 -9.29,3.887 -9.29,10.34 0,6.53 4.471,10.379 9.29,10.379 4.51,0 9.446,-3.382 9.136,-11.506 z" /></g><g
         transform="translate(165.6875,64.2901)"
         id="g38"><path
           id="path40"
           style="fill:#231f20;fill-opacity:1;fill-rule:nonzero;stroke:none"
           d="m 0,0 h 3.81 v -2.332 c 1.787,1.555 4.158,2.721 6.568,2.721 3.654,0 6.686,-2.294 6.686,-7.775 v -12.555 h -4.003 v 12.439 c 0,3.148 -1.633,4.431 -3.655,4.431 -1.788,0 -3.847,-1.01 -5.402,-2.37 v -14.5 H 0 Z" /></g><path
         id="path42"
         style="fill:#231f20;fill-opacity:1;fill-rule:nonzero;stroke:none"
         d="m 188.153,64.29 h 4.004 V 44.349 h -4.004 z m 2.721,9.835 4.043,-0.311 -4.081,-6.998 h -3.538 z" /></g></g></svg>