<svg id="Layer_1" data-name="Layer 1" xmlns="http://www.w3.org/2000/svg" viewBox="0 0 800 800"><defs><style>.cls-1{fill:#fff;}</style></defs><polygon class="cls-1" points="382.94 576.87 491.72 622.31 491.72 559.52 491.72 496.73 382.94 576.87"/><polygon class="cls-1" points="491.72 496.73 491.72 559.52 491.72 496.73 491.72 496.73"/><polygon class="cls-1" points="491.72 496.73 382.94 576.87 491.72 496.73 491.72 496.73"/><polygon class="cls-1" points="491.72 622.31 491.72 559.52 491.72 622.31 491.72 622.31"/><polygon class="cls-1" points="491.72 622.31 491.72 622.31 382.94 576.87 491.72 622.31"/><polygon class="cls-1" points="302.28 496.71 302.28 622.29 411.06 542.14 302.28 496.71"/><path class="cls-1" d="M466.64,253.92v204.7H710.23V253.92ZM576,377.44A36.7,36.7,0,0,1,567.23,390a40.36,40.36,0,0,1-13.61,8.18A52.07,52.07,0,0,1,535.78,401,49.35,49.35,0,0,1,517,397.71,40.51,40.51,0,0,1,503.41,389a35.63,35.63,0,0,1-8.14-12.62,45.3,45.3,0,0,1-.15-30.89,37,37,0,0,1,8.15-12.76,38.85,38.85,0,0,1,13.61-8.93,55.68,55.68,0,0,1,38.29.11,39.19,39.19,0,0,1,13.54,9,36.17,36.17,0,0,1,7.94,12.87,44.47,44.47,0,0,1,2.57,15A41.7,41.7,0,0,1,576,377.44Zm76.55,27.36q-17.34,16.32-47.39,20.28l-1.62-7,7.48-1.27a50.11,50.11,0,0,0,14.38-6.35,36.61,36.61,0,0,0,9.38-9,41.33,41.33,0,0,0,5.78-11.21,75.67,75.67,0,0,0,3-12.2,33,33,0,0,1-12,7.16,46,46,0,0,1-13.08,1.73,27.13,27.13,0,0,1-11.35-2.4,28.56,28.56,0,0,1-9.17-6.56,30.23,30.23,0,0,1-6.17-10.19,36.79,36.79,0,0,1-2.22-12.94,31,31,0,0,1,11.42-24.65q11.43-9.76,28.56-9.76,18.56,0,29.48,11.49t10.93,30.89Q669.91,388.48,652.56,404.8Z"/><path class="cls-1" d="M549.11,336.64a18.18,18.18,0,0,0-5.22-7.4,12.3,12.3,0,0,0-8-2.61,12.55,12.55,0,0,0-8,2.57,18.44,18.44,0,0,0-5.29,7.3,41.62,41.62,0,0,0-2.68,10.55,103.09,103.09,0,0,0-.85,13.71,100.72,100.72,0,0,0,.75,13.33,45.68,45.68,0,0,0,2.71,10.58,18,18,0,0,0,5.08,7.4,12.18,12.18,0,0,0,8.18,2.82,12.52,12.52,0,0,0,7.83-2.53,17.1,17.1,0,0,0,5.21-6.92,42.25,42.25,0,0,0,2.93-10.54,96,96,0,0,0,.88-14.14,101.36,101.36,0,0,0-.81-13.47A43.63,43.63,0,0,0,549.11,336.64Z"/><path class="cls-1" d="M629.71,326.63q-6.27,0-10.19,6.84t-3.91,19.75q0,11.28,4,18t10.48,6.7a17.54,17.54,0,0,0,7.54-1.62,16.51,16.51,0,0,0,6.42-6.07c0-.23,0-.64.07-1.23s.07-1.35.07-2.29c0-.66,0-1.46.07-2.4s.07-1.86.07-2.75q0-16.92-4-25.92T629.71,326.63Z"/><path class="cls-1" d="M454.73,253.92H90.23v204.7h364.5Zm-238.08,72.9h-5.5a61.21,61.21,0,0,0-7-13.75q-4.82-7.33-8.9-7.9c-1.5-.18-3.35-.35-5.56-.49s-4.1-.21-5.7-.21h-3.3V383a10.28,10.28,0,0,0,.92,4.48,6.45,6.45,0,0,0,3.59,3.06,31.15,31.15,0,0,0,5,1.31c2.28.45,4.22.76,5.82.95v5.5H140.28v-5.5l5.75-.6a20.48,20.48,0,0,0,5-1,6.58,6.58,0,0,0,3.67-3,10.36,10.36,0,0,0,.91-4.52V304.47h-3.3q-2.4,0-5.7.21c-2.21.14-4.06.31-5.56.49q-4.08.57-8.9,7.9a61.63,61.63,0,0,0-7,13.75h-5.5V298.19h97Zm107.76,41.54a48.09,48.09,0,0,1-10.58,17,51.86,51.86,0,0,1-17.06,11.53Q287,401,273.43,401a59.11,59.11,0,0,1-20.67-3.6A50.91,50.91,0,0,1,235.63,387,48.92,48.92,0,0,1,224,370.69a51.64,51.64,0,0,1-4.3-21.37,57,57,0,0,1,4.19-22.25A51.12,51.12,0,0,1,235.42,310a50,50,0,0,1,17.24-10.75,61.94,61.94,0,0,1,42.31-.11,51.84,51.84,0,0,1,17,10.23,49.35,49.35,0,0,1,11.74,16.36,52.53,52.53,0,0,1,4.34,21.86A59.37,59.37,0,0,1,324.41,368.36Zm100.95-30.57a27.66,27.66,0,0,1-9.62,9.91,45.36,45.36,0,0,1-14.49,5.71,86.57,86.57,0,0,1-18.3,1.76h-8.18v28.14a9.56,9.56,0,0,0,1,4.41,6.82,6.82,0,0,0,3.63,3,29.41,29.41,0,0,0,4.58,1.19,53.17,53.17,0,0,0,5.36.85v5.5H335.06v-5.5c1.36-.14,3.18-.34,5.43-.6a19.37,19.37,0,0,0,4.73-1,6.91,6.91,0,0,0,3.63-2.75,9.53,9.53,0,0,0,.88-4.51v-70.6a9.84,9.84,0,0,0-.85-4.26,6.64,6.64,0,0,0-3.66-3,27.82,27.82,0,0,0-5.26-1.51c-2.18-.45-3.82-.75-4.9-.89v-5.5h55.22q19.39,0,29,6.17t9.59,18.87A28.82,28.82,0,0,1,425.36,337.79Z"/><path class="cls-1" d="M380.62,304.61h-5.85v43.93h3q11.56,0,17.59-5.32t6-16.4q0-11.28-4.55-16.74T380.62,304.61Z"/><path class="cls-1" d="M294.44,316.48a27.76,27.76,0,0,0-8-10.31,19.76,19.76,0,0,0-12.48-3.89q-12.76,0-19.39,12.12t-6.63,34.22a104,104,0,0,0,1.44,17.72,52.71,52.71,0,0,0,4.55,14.55,26.45,26.45,0,0,0,8,9.78,19.94,19.94,0,0,0,12,3.5,20.31,20.31,0,0,0,12-3.53,24.71,24.71,0,0,0,8-9.68,53.39,53.39,0,0,0,4.58-14.55,107.93,107.93,0,0,0,1.41-18.36,112.83,112.83,0,0,0-1.24-16.91A54.06,54.06,0,0,0,294.44,316.48Z"/></svg>