<svg xmlns="http://www.w3.org/2000/svg" viewBox="0 0 800 800"><defs><style>.cls-1{fill:#ff0053;}.cls-2{fill:#2b3cd6;}.cls-3{fill:#fff;}</style></defs><g id="Layer_1" data-name="Layer 1"><polygon class="cls-1" points="386.05 578.95 495.87 624.84 495.87 498.04 386.05 578.95 495.87 624.84 495.87 498.04 386.05 578.95"/><polygon class="cls-2" points="414.43 543.89 304.61 498.02 304.61 624.81 414.43 543.89 304.61 498.02 304.61 624.81 414.43 543.89"/><rect class="cls-2" x="462.23" y="252.9" width="248" height="206.67"/><rect class="cls-1" x="90.23" y="252.9" width="372" height="206.67"/><path class="cls-3" d="M573.61,332.64a36.64,36.64,0,0,1,8,13,44.76,44.76,0,0,1,2.59,15.13A42.23,42.23,0,0,1,581,377.6a37.08,37.08,0,0,1-8.87,12.71,40.71,40.71,0,0,1-13.74,8.26,52.53,52.53,0,0,1-18,2.85,50.11,50.11,0,0,1-19-3.35,40.87,40.87,0,0,1-13.7-8.82,36.14,36.14,0,0,1-8.23-12.75,45.73,45.73,0,0,1-.14-31.18,37.34,37.34,0,0,1,8.22-12.89,39.34,39.34,0,0,1,13.74-9A50.74,50.74,0,0,1,540.43,320a50.2,50.2,0,0,1,19.51,3.49A39.73,39.73,0,0,1,573.61,332.64Zm-20.08,53.05a43,43,0,0,0,3-10.65,96.2,96.2,0,0,0,.89-14.27,101.4,101.4,0,0,0-.82-13.6,43.64,43.64,0,0,0-2.74-10.75,18.24,18.24,0,0,0-5.27-7.48,12.38,12.38,0,0,0-8-2.63,12.68,12.68,0,0,0-8.12,2.59,18.72,18.72,0,0,0-5.34,7.37,41.89,41.89,0,0,0-2.7,10.65,116.22,116.22,0,0,0-.11,27.3A46.55,46.55,0,0,0,527,384.9a18.18,18.18,0,0,0,5.13,7.48,12.29,12.29,0,0,0,8.26,2.85,12.62,12.62,0,0,0,7.9-2.57A17.23,17.23,0,0,0,553.53,385.69Z"/><path class="cls-3" d="M675.78,362.83q0,25.92-17.52,42.4T610.42,425.7l-1.64-7.05,7.55-1.28A50.16,50.16,0,0,0,630.85,411a37,37,0,0,0,9.47-9.11,42.3,42.3,0,0,0,5.84-11.32,76.09,76.09,0,0,0,3-12.32A33.48,33.48,0,0,1,637,385.44a46.44,46.44,0,0,1-13.21,1.74,27.49,27.49,0,0,1-11.46-2.42,28.8,28.8,0,0,1-9.26-6.62,30.54,30.54,0,0,1-6.22-10.29,37,37,0,0,1-2.25-13.06,31.36,31.36,0,0,1,11.54-24.89Q617.69,320,635,320q18.74,0,29.76,11.61T675.78,362.83Zm-26,3.92c0-.67,0-1.47.07-2.42s.07-1.88.07-2.78q0-17.08-4.09-26.17t-10.64-9.07q-6.35,0-10.29,6.9T621,353.15q0,11.39,4,18.15t10.57,6.77a17.73,17.73,0,0,0,7.62-1.64,16.64,16.64,0,0,0,6.48-6.12c0-.24,0-.66.07-1.25S649.79,367.7,649.79,366.75Z"/><path class="cls-3" d="M218.24,326.5h-5.55a61.76,61.76,0,0,0-7.07-13.88q-4.86-7.41-9-8c-1.52-.19-3.39-.35-5.62-.5s-4.14-.21-5.75-.21h-3.34v79.24a10.47,10.47,0,0,0,.93,4.53,6.55,6.55,0,0,0,3.63,3.09,31.55,31.55,0,0,0,5.09,1.32q3.45.67,5.87,1v5.56H141.13v-5.56l5.81-.6a20.68,20.68,0,0,0,5.09-1,6.63,6.63,0,0,0,3.7-3.07,10.35,10.35,0,0,0,.93-4.55v-80h-3.34q-2.41,0-5.76.21c-2.22.15-4.09.31-5.61.5q-4.12.57-9,8a61.76,61.76,0,0,0-7.07,13.88h-5.56V297.59h97.9Z"/><path class="cls-3" d="M314.51,308.84a50.15,50.15,0,0,1,11.85,16.52,53,53,0,0,1,4.38,22.07,60.06,60.06,0,0,1-3.7,21,48.76,48.76,0,0,1-10.68,17.16,52.46,52.46,0,0,1-17.23,11.64q-9.9,4.15-23.57,4.16a59.69,59.69,0,0,1-20.86-3.63,51.41,51.41,0,0,1-17.3-10.54,49.2,49.2,0,0,1-11.75-16.44,52.1,52.1,0,0,1-4.34-21.58,57.48,57.48,0,0,1,4.23-22.46,51.89,51.89,0,0,1,11.64-17.27,50.84,50.84,0,0,1,17.41-10.85,62.63,62.63,0,0,1,42.72-.11A52.56,52.56,0,0,1,314.51,308.84Zm-18.3,72.32a54,54,0,0,0,4.63-14.69,110,110,0,0,0,1.42-18.54A115.11,115.11,0,0,0,301,330.85a54.65,54.65,0,0,0-4.23-14.79,28,28,0,0,0-8.12-10.41,19.91,19.91,0,0,0-12.6-3.93q-12.88,0-19.58,12.23t-6.69,34.55a104,104,0,0,0,1.46,17.9,52.94,52.94,0,0,0,4.59,14.69A26.68,26.68,0,0,0,264,391a22.41,22.41,0,0,0,24.21,0A24.93,24.93,0,0,0,296.21,381.16Z"/><path class="cls-3" d="M432.48,322.87a29.08,29.08,0,0,1-3.52,14.7,28.06,28.06,0,0,1-9.72,10,45.8,45.8,0,0,1-14.63,5.76,87.41,87.41,0,0,1-18.48,1.78h-8.25v28.41a9.7,9.7,0,0,0,1,4.45,6.85,6.85,0,0,0,3.66,3,29.59,29.59,0,0,0,4.63,1.21c2.14.42,3.94.71,5.41.85v5.56H337.79v-5.56c1.38-.14,3.2-.34,5.48-.6a19.47,19.47,0,0,0,4.77-1,7,7,0,0,0,3.67-2.78,9.68,9.68,0,0,0,.89-4.56V312.9a10,10,0,0,0-.85-4.31,6.76,6.76,0,0,0-3.71-3,28,28,0,0,0-5.3-1.53c-2.21-.45-3.86-.75-4.95-.89v-5.56h55.75q19.57,0,29.26,6.23T432.48,322.87Zm-27.76,3.63q0-11.38-4.59-16.91t-16.35-5.52h-5.9v44.36h3q11.67,0,17.76-5.38T404.72,326.5Z"/></g></svg>